<svg xmlns="http://www.w3.org/2000/svg" width="256" height="256" viewBox="0 0 100 100"><rect width="100" height="100" rx="20" fill="#f97316"></rect><path fill="#fff" d="M45.59 82.73L45.59 82.73L22.39 82.73L22.39 17.27L45.78 17.27Q55.66 17.27 62.78 21.19Q69.91 25.10 73.76 32.42Q77.61 39.74 77.61 49.94L77.61 49.94Q77.61 60.16 73.76 67.51Q69.91 74.87 62.74 78.80Q55.56 82.73 45.59 82.73ZM36.23 29.13L36.23 70.87L45.01 70.87Q51.15 70.87 55.35 68.68Q59.56 66.49 61.68 61.87Q63.81 57.25 63.81 49.94L63.81 49.94Q63.81 42.68 61.68 38.08Q59.56 33.48 55.37 31.30Q51.18 29.13 45.05 29.13L45.05 29.13L36.23 29.13Z"></path></svg>